<svg width="16" height="16" viewBox="0 0 16 16" fill="none" xmlns="http://www.w3.org/2000/svg">
<path d="M6.6665 10L6.6665 8" stroke="#222222" stroke-width="1.5" stroke-linecap="round"/>
<path d="M9.3335 10L9.3335 8" stroke="#222222" stroke-width="1.5" stroke-linecap="round"/>
<path d="M2 4.66699H14V4.66699C12.8954 4.66699 12 5.56242 12 6.66699V9.33366C12 11.2193 12 12.1621 11.4142 12.7479C10.8284 13.3337 9.88562 13.3337 8 13.3337V13.3337C6.11438 13.3337 5.17157 13.3337 4.58579 12.7479C4 12.1621 4 11.2193 4 9.33366V6.66699C4 5.56242 3.10457 4.66699 2 4.66699V4.66699Z" stroke="#222222" stroke-width="1.5" stroke-linecap="round"/>
<path d="M6.71226 2.24706C6.78823 2.17618 6.95562 2.11355 7.18848 2.06888C7.42134 2.02421 7.70665 2 8.00016 2C8.29367 2 8.57899 2.02421 8.81184 2.06888C9.0447 2.11355 9.2121 2.17618 9.28806 2.24706" stroke="#222222" stroke-width="1.5" stroke-linecap="round"/>
</svg>
